<?xml version="1.0" encoding="utf-8"?>
<!-- Generator: Adobe Illustrator 21.0.0, SVG Export Plug-In . SVG Version: 6.00 Build 0)  -->
<svg version="1.1" id="generic-bg" xmlns="http://www.w3.org/2000/svg" xmlns:xlink="http://www.w3.org/1999/xlink" x="0px" y="0px"
	 viewBox="0 0 1451.2 653.4" style="enable-background:new 0 0 1451.2 653.4;" xml:space="preserve">
<style type="text/css">
	.st0{fill:#24292E;}
	.st1{font-family:'Impact';}
	.st2{font-size:276px;}
	.st3{fill:#2D343A;}
</style>
<text transform="matrix(1 0 0 1 257.1546 280.6216)" class="st0 st1 st2">MADE BY</text>
<text transform="matrix(1 0 0 1 251.0546 611.8216)" class="st0 st1 st2"> WEI X.M.</text>
<title>simple-codelines</title>
<g>
	<path class="st0" d="M1278.3,92.3h-79.1c-1.2,0-2.3-0.7-2.3-1.5s1.1-1.5,2.3-1.5h79.1c1.2,0,2.3,0.7,2.3,1.5
		S1279.5,92.3,1278.3,92.3z"/>
	<path class="st0" d="M1181.3,92.3h-47.9c-1.2,0-2.3-0.7-2.3-1.5s1.1-1.5,2.3-1.5h47.9c1.2,0,2.3,0.7,2.3,1.5
		S1182.7,92.3,1181.3,92.3z"/>
	<path class="st0" d="M1059.4,92.3h-43.3c-1.2,0-2.3-0.7-2.3-1.5s1.1-1.5,2.3-1.5h43.3c1.2,0,2.3,0.7,2.3,1.5
		S1060.6,92.3,1059.4,92.3z"/>
	<path class="st0" d="M1443.3,92.3h-38.1c-1.2,0-2.3-0.7-2.3-1.5s1.1-1.5,2.3-1.5h38.1c1.2,0,2.3,0.7,2.3,1.5
		C1445.6,91.6,1444.5,92.3,1443.3,92.3z"/>
	<path class="st0" d="M1201.8,112.6h-23.9c-1.2,0-2.3-0.7-2.3-1.5s1.1-1.5,2.3-1.5h23.9c1.2,0,2.3,0.7,2.3,1.5
		S1203,112.6,1201.8,112.6z"/>
	<path class="st0" d="M1334.1,51.4h-97.3c-1.2,0-2.3-0.7-2.3-1.5s1.1-1.5,2.3-1.5h97.3c1.2,0,2.3,0.7,2.3,1.5
		C1336.4,50.8,1335.5,51.4,1334.1,51.4z"/>
	<path class="st0" d="M1059.8,51.4h-23.6c-1.2,0-2.3-0.7-2.3-1.5s1.1-1.5,2.3-1.5h23.6c1.2,0,2.3,0.7,2.3,1.5
		S1061.2,51.4,1059.8,51.4z"/>
	<path class="st0" d="M1015.9,51.4h-148c-1.2,0-2.3-0.7-2.3-1.5s1.1-1.5,2.3-1.5H1016c1.2,0,2.3,0.7,2.3,1.5
		S1017.3,51.4,1015.9,51.4z"/>
	<path class="st0" d="M1373.9,51.4h-19.7c-1.2,0-2.3-0.7-2.3-1.5s1.1-1.5,2.3-1.5h19.7c1.2,0,2.3,0.7,2.3,1.5
		S1375.2,51.4,1373.9,51.4z"/>
	<path class="st0" d="M974.2,71.7h-34c-1.2,0-2.3-0.7-2.3-1.5s1.1-1.5,2.3-1.5h34.1c1.2,0,2.3,0.7,2.3,1.5S975.4,71.7,974.2,71.7z"
		/>
	<path class="st0" d="M1299.8,71.7h-44.5c-1.2,0-2.3-0.7-2.3-1.5s1.1-1.5,2.3-1.5h44.5c1.2,0,2.3,0.7,2.3,1.5S1301,71.7,1299.8,71.7
		z"/>
	<path class="st0" d="M1254.4,31.1h-46.8c-1.2,0-2.3-0.7-2.3-1.5s1.1-1.5,2.3-1.5h46.8c1.2,0,2.3,0.7,2.3,1.5
		S1255.6,31.1,1254.4,31.1z"/>
	<path class="st0" d="M990.4,31.1h-57.1c-1.2,0-2.3-0.7-2.3-1.5s1.1-1.5,2.3-1.5h57.1c1.2,0,2.3,0.7,2.3,1.5S991.6,31.1,990.4,31.1
		L990.4,31.1z"/>
	<path class="st0" d="M906.6,31.1H732.2c-1.2,0-2.3-0.7-2.3-1.5s1.1-1.5,2.3-1.5h174.4c1.2,0,2.3,0.7,2.3,1.5S907.8,31.1,906.6,31.1
		z"/>
	<path class="st0" d="M1269.1,153.4h-13.9c-1.2,0-2.3-0.7-2.3-1.5s1.1-1.5,2.3-1.5h13.9c1.2,0,2.3,0.7,2.3,1.5
		S1270.5,153.4,1269.1,153.4z"/>
	<path class="st0" d="M1348.5,153.4h-54c-1.2,0-2.3-0.7-2.3-1.5s1.1-1.5,2.3-1.5h54c1.2,0,2.3,0.7,2.3,1.5
		S1349.7,153.4,1348.5,153.4z"/>
	<path class="st0" d="M1205.3,173.7h-36.4c-1.2,0-2.3-0.7-2.3-1.5s1.1-1.5,2.3-1.5h36.4c1.2,0,2.3,0.7,2.3,1.5
		S1206.7,173.7,1205.3,173.7z"/>
	<path class="st0" d="M1401.1,173.7h-52.5c-1.2,0-2.3-0.7-2.3-1.5s1.1-1.5,2.3-1.5h52.5c1.2,0,2.3,0.7,2.3,1.5
		S1402.3,173.7,1401.1,173.7z"/>
	<path class="st0" d="M1338.8,132.9h-28.1c-1.2,0-2.3-0.7-2.3-1.5s1.1-1.5,2.3-1.5h28.1c1.2,0,2.3,0.7,2.3,1.5
		S1340.2,132.9,1338.8,132.9z"/>
	<path class="st0" d="M1158,234.8h-19c-1.2,0-2.3-0.7-2.3-1.5s1.1-1.5,2.3-1.5h19c1.2,0,2.3,0.7,2.3,1.5S1159.2,234.8,1158,234.8z"
		/>
	<path class="st0" d="M1215.1,234.8h-37c-1.2,0-2.3-0.7-2.3-1.5s1.1-1.5,2.3-1.5h37c1.2,0,2.3,0.7,2.3,1.5
		S1216.5,234.8,1215.1,234.8z"/>
	<path class="st0" d="M1277,234.8h-21.7c-1.2,0-2.3-0.7-2.3-1.5s1.1-1.5,2.3-1.5h21.7c1.2,0,2.3,0.7,2.3,1.5
		S1278.3,234.8,1277,234.8z"/>
	<path class="st0" d="M1357,234.8h-57.4c-1.2,0-2.3-0.7-2.3-1.5s1.1-1.5,2.3-1.5h57.4c1.2,0,2.3,0.7,2.3,1.5
		S1358.4,234.8,1357,234.8z"/>
	<path class="st0" d="M1441.8,234.8H1411c-1.2,0-2.3-0.7-2.3-1.5s1.1-1.5,2.3-1.5h30.7c1.2,0,2.3,0.7,2.3,1.5
		S1443,234.8,1441.8,234.8z"/>
	<path class="st0" d="M1375.4,194h-64.7c-1.2,0-2.3-0.7-2.3-1.5s1.1-1.5,2.3-1.5h64.7c1.2,0,2.3,0.7,2.3,1.5S1376.6,194,1375.4,194z
		"/>
	<path class="st0" d="M1298.3,214.3h-43.9c-1.2,0-2.3-0.7-2.3-1.5s1.1-1.5,2.3-1.5h43.9c1.2,0,2.3,0.7,2.3,1.5
		S1299.5,214.3,1298.3,214.3z"/>
	<path class="st0" d="M1338.8,214.3h-16.2c-1.2,0-2.3-0.7-2.3-1.5s1.1-1.5,2.3-1.5h16.2c1.2,0,2.3,0.7,2.3,1.5
		S1340.2,214.3,1338.8,214.3z"/>
	<path class="st0" d="M1189.7,296.4h-41.5c-1.2,0-2.3-0.7-2.3-1.5s1.1-1.5,2.3-1.5h41.5c1.2,0,2.3,0.7,2.3,1.5
		C1192,295.7,1190.9,296.4,1189.7,296.4z"/>
	<path class="st0" d="M1254.4,296.4h-40.1c-1.2,0-2.3-0.7-2.3-1.5s1.1-1.5,2.3-1.5h40.1c1.2,0,2.3,0.7,2.3,1.5
		S1255.6,296.4,1254.4,296.4z"/>
	<path class="st0" d="M1357,296.4h-75.6c-1.2,0-2.3-0.7-2.3-1.5s1.1-1.5,2.3-1.5h75.6c1.2,0,2.3,0.7,2.3,1.5
		S1358.4,296.4,1357,296.4z"/>
	<path class="st0" d="M1162.9,316.3h-44.4c-1.2,0-2.3-0.7-2.3-1.5s1.1-1.5,2.3-1.5h44.4c1.2,0,2.3,0.7,2.3,1.5
		S1164.1,316.3,1162.9,316.3z"/>
	<path class="st0" d="M1437.9,336.5h-37c-1.2,0-2.3-0.7-2.3-1.5s1.1-1.5,2.3-1.5h37c1.2,0,2.3,0.7,2.3,1.5
		S1439.3,336.5,1437.9,336.5z"/>
	<path class="st0" d="M1228.1,275.4h-23.3c-1.2,0-2.3-0.7-2.3-1.5s1.1-1.5,2.3-1.5h23.3c1.2,0,2.3,0.6,2.3,1.5
		S1229.3,275.4,1228.1,275.4z"/>
	<path class="st0" d="M1297.2,275.4H1253c-1.2,0-2.3-0.7-2.3-1.5s1.1-1.5,2.3-1.5h44.2c1.2,0,2.3,0.7,2.3,1.5
		S1298.4,275.4,1297.2,275.4z"/>
	<path class="st0" d="M1446.1,275.4H1401c-1.2,0-2.3-0.7-2.3-1.5s1.1-1.5,2.3-1.5h45.1c1.2,0,2.3,0.7,2.3,1.5
		S1447.3,275.4,1446.1,275.4z"/>
	<path class="st0" d="M1280.5,377.4h-64.9c-1.2,0-2.3-0.7-2.3-1.5s1.1-1.5,2.3-1.5h64.9c1.2,0,2.3,0.7,2.3,1.5
		S1281.8,377.4,1280.5,377.4z"/>
	<path class="st0" d="M1334.4,377.4h-31.7c-1.2,0-2.3-0.7-2.3-1.5s1.1-1.5,2.3-1.5h31.7c1.2,0,2.3,0.7,2.3,1.5
		C1336.7,376.7,1335.6,377.4,1334.4,377.4L1334.4,377.4z"/>
	<path class="st0" d="M1435.8,397.7h-34.9c-1.2,0-2.3-0.7-2.3-1.5s1.1-1.5,2.3-1.5h34.9c1.2,0,2.3,0.7,2.3,1.5
		S1437.2,397.7,1435.8,397.7z"/>
	<path class="st0" d="M1355.5,336.6h-46.3c-1.2,0-2.3-0.7-2.3-1.5s1.1-1.5,2.3-1.5h46.3c1.2,0,2.3,0.7,2.3,1.5
		S1356.9,336.6,1355.5,336.6z"/>
	<path class="st0" d="M1251.5,356.9h-14.1c-1.2,0-2.3-0.7-2.3-1.5s1.1-1.5,2.3-1.5h14.1c1.2,0,2.3,0.7,2.3,1.5
		S1252.9,356.9,1251.5,356.9z"/>
	<path class="st0" d="M1302.7,356.9h-32.3c-1.2,0-2.3-0.7-2.3-1.5s1.1-1.5,2.3-1.5h32.3c1.2,0,2.3,0.7,2.3,1.5
		S1304,356.9,1302.7,356.9z"/>
	<path class="st0" d="M1437.6,356.9H1401c-1.2,0-2.3-0.7-2.3-1.5s1.1-1.5,2.3-1.5h36.6c1.2,0,2.3,0.7,2.3,1.5
		S1438.9,356.9,1437.6,356.9z"/>
	<path class="st0" d="M1356,438.5h-78.5c-1.2,0-2.3-0.7-2.3-1.5s1.1-1.5,2.3-1.5h78.5c1.2,0,2.3,0.7,2.3,1.5
		S1357.3,438.5,1356,438.5z"/>
	<path class="st0" d="M1363,458.8h-41.5c-1.2,0-2.3-0.7-2.3-1.5s1.1-1.5,2.3-1.5h41.5c1.2,0,2.3,0.7,2.3,1.5
		S1364.2,458.8,1363,458.8z"/>
	<path class="st0" d="M1299.4,418h-63.9c-1.2,0-2.3-0.7-2.3-1.5s1.1-1.5,2.3-1.5h63.9c1.2,0,2.3,0.7,2.3,1.5S1300.6,418,1299.4,418z
		"/>
	<path class="st0" d="M1356,418h-19.3c-1.2,0-2.3-0.7-2.3-1.5s1.1-1.5,2.3-1.5h19.3c1.2,0,2.3,0.7,2.3,1.5S1357.3,418,1356,418z"/>
	<path class="st0" d="M1251.8,520h-70.4c-1.2,0-2.3-0.7-2.3-1.5s1.1-1.5,2.3-1.5h70.4c1.2,0,2.3,0.7,2.3,1.5S1253,520,1251.8,520z"
		/>
	<path class="st0" d="M1360.7,520h-88.1c-1.2,0-2.3-0.7-2.3-1.5s1.1-1.5,2.3-1.5h88.1c1.2,0,2.3,0.7,2.3,1.5S1361.9,520,1360.7,520z
		"/>
	<path class="st0" d="M1185.3,540.3h-86.6c-1.2,0-2.3-0.7-2.3-1.5s1.1-1.5,2.3-1.5h86.6c1.2,0,2.3,0.7,2.3,1.5
		S1186.5,540.3,1185.3,540.3z"/>
	<path class="st0" d="M1254.7,540.3h-45.3c-1.2,0-2.3-0.7-2.3-1.5s1.1-1.5,2.3-1.5h45.3c1.2,0,2.3,0.7,2.3,1.5
		S1255.9,540.3,1254.7,540.3z"/>
	<path class="st0" d="M1219.2,479.2h-21.6c-1.2,0-2.3-0.7-2.3-1.5s1.1-1.5,2.3-1.5h21.6c1.2,0,2.3,0.7,2.3,1.5
		S1220.4,479.2,1219.2,479.2z"/>
	<path class="st0" d="M1440.1,479.2h-34.9c-1.2,0-2.3-0.7-2.3-1.5s1.1-1.5,2.3-1.5h35c1.2,0,2.3,0.7,2.3,1.5
		C1442.4,478.5,1441.3,479.2,1440.1,479.2z"/>
	<path class="st0" d="M1257.8,499.5h-51.4c-1.2,0-2.3-0.7-2.3-1.5s1.1-1.5,2.3-1.5h51.4c1.2,0,2.3,0.7,2.3,1.5
		S1259,499.5,1257.8,499.5z"/>
	<path class="st0" d="M1310.7,499.5h-21.9c-1.2,0-2.3-0.7-2.3-1.5s1.1-1.5,2.3-1.5h21.9c1.2,0,2.3,0.7,2.3,1.5
		S1311.9,499.5,1310.7,499.5z"/>
	<path class="st0" d="M1080.2,601.4H1055c-1.2,0-2.3-0.7-2.3-1.5s1.1-1.5,2.3-1.5h25.2c1.2,0,2.3,0.7,2.3,1.5
		S1081.4,601.4,1080.2,601.4z"/>
	<path class="st0" d="M1384.3,601.4h-54.5c-1.2,0-2.3-0.7-2.3-1.5s1.1-1.5,2.3-1.5h54.5c1.2,0,2.3,0.7,2.3,1.5
		S1385.5,601.4,1384.3,601.4z"/>
	<path class="st0" d="M1436.3,601.4h-29.4c-1.2,0-2.3-0.7-2.3-1.5s1.1-1.5,2.3-1.5h29.4c1.2,0,2.3,0.7,2.3,1.5
		S1437.5,601.4,1436.3,601.4z"/>
	<path class="st0" d="M1305,621.7h-20.5c-1.2,0-2.3-0.7-2.3-1.5s1.1-1.5,2.3-1.5h20.5c1.2,0,2.3,0.7,2.3,1.5
		S1306.4,621.7,1305,621.7z"/>
	<path class="st0" d="M1260.4,621.7h-39.8c-1.2,0-2.3-0.7-2.3-1.5s1.1-1.5,2.3-1.5h39.8c1.2,0,2.3,0.7,2.3,1.5
		S1261.6,621.7,1260.4,621.7z"/>
	<path class="st0" d="M990.8,621.7h-33.3c-1.2,0-2.3-0.7-2.3-1.5s1.1-1.5,2.3-1.5h33.3c1.2,0,2.3,0.7,2.3,1.5
		S992.1,621.7,990.8,621.7z"/>
	<path class="st0" d="M940.2,621.7h-96.4c-1.2,0-2.3-0.7-2.3-1.5s1.1-1.5,2.3-1.5h96.4c1.2,0,2.3,0.7,2.3,1.5
		S941.4,621.7,940.2,621.7z"/>
	<path class="st0" d="M1094.2,621.7H1017c-1.2,0-2.3-0.7-2.3-1.5s1.1-1.5,2.3-1.5h77.2c1.2,0,2.3,0.7,2.3,1.5
		S1095.6,621.7,1094.2,621.7z"/>
	<path class="st0" d="M1352,642h-100.8c-1.2,0-2.3-0.7-2.3-1.5s1.1-1.5,2.3-1.5H1352c1.2,0,2.3,0.7,2.3,1.5S1353.2,642,1352,642z"/>
	<path class="st0" d="M1045,642h-56.1c-1.2,0-2.3-0.7-2.3-1.5s1.1-1.5,2.3-1.5h56.1c1.2,0,2.3,0.7,2.3,1.5S1046.2,642,1045,642z"/>
	<path class="st0" d="M880.6,642h-28.9c-1.2,0-2.3-0.7-2.3-1.5s1.1-1.5,2.3-1.5h28.9c1.2,0,2.3,0.7,2.3,1.5S881.9,642,880.6,642z"/>
	<path class="st0" d="M831.8,642H727.9c-1.2,0-2.3-0.7-2.3-1.5s1.1-1.5,2.3-1.5h103.9c1.2,0,2.3,0.7,2.3,1.5
		C834.1,641.4,833.1,642,831.8,642z"/>
	<path class="st0" d="M1181.3,560.6H1161c-1.2,0-2.3-0.7-2.3-1.5s1.1-1.5,2.3-1.5h20.3c1.2,0,2.3,0.7,2.3,1.5
		S1182.7,560.6,1181.3,560.6z"/>
	<path class="st0" d="M1179.3,621.7h-46.5c-1.2,0-2.3-0.7-2.3-1.5s1.1-1.5,2.3-1.5h46.5c14.5,0,26.5-7.7,26.5-17.3v-23.6
		c0-11.2,13.9-20.3,31.1-20.3h200.8c1.2,0,2.3,0.7,2.3,1.5s-1.1,1.5-2.3,1.5h-200.8c-14.5,0-26.5,7.7-26.5,17.3v23.6
		C1210.3,612.6,1196.4,621.7,1179.3,621.7z"/>
	<path class="st0" d="M1309.2,295.7c-0.6,0-1.2-0.2-1.7-0.4l-30.9-20.2c-0.9-0.6-0.8-1.6,0.2-2.1c0.9-0.5,2.3-0.5,3.1,0l30.9,20.2
		c0.9,0.6,0.9,1.5,0,2.1C1310.4,295.5,1309.8,295.7,1309.2,295.7z"/>
	<path class="st0" d="M1245.1,92c-1.2,0-2.3-0.7-2.3-1.5c0-0.4,0.3-0.8,0.6-1.1l30.9-20.2c0.9-0.6,2.4-0.5,3.2,0.1
		c0.8,0.6,0.8,1.5,0,2l-30.9,20.2C1246.3,91.8,1245.7,91.9,1245.1,92z"/>
	<path class="st0" d="M1209.1,519.8c-1.2,0-2.3-0.7-2.3-1.5c0-0.4,0.3-0.8,0.6-1.1l31.1-20.2c0.9-0.6,2.4-0.5,3.2,0.1s0.8,1.5,0,2
		l-30.9,20.2C1210.3,519.7,1209.7,519.9,1209.1,519.8z"/>
	<path class="st0" d="M1346.6,137.9c-5.5,0-9.9-2.9-9.9-6.5s4.4-6.5,9.9-6.5s9.9,2.9,9.9,6.5C1356.6,135,1352,137.9,1346.6,137.9z
		 M1346.6,127.9c-2.9,0-5.4,1.6-5.4,3.5s2.4,3.5,5.4,3.5c2.9,0,5.4-1.6,5.4-3.5C1352,129.4,1349.5,127.9,1346.6,127.9L1346.6,127.9
		L1346.6,127.9z"/>
	<path class="st0" d="M1329,423c-5.5,0-9.9-2.9-9.9-6.5s4.4-6.5,9.9-6.5s9.9,2.9,9.9,6.5l0,0C1339,420.1,1334.5,423,1329,423z
		 M1329,413c-2.9,0-5.4,1.6-5.4,3.5s2.4,3.5,5.4,3.5c2.9,0,5.4-1.6,5.4-3.5l0,0C1334.4,414.6,1331.9,413,1329,413L1329,413L1329,413
		z"/>
	<path class="st0" d="M1124.8,626.7c-5.5,0-9.9-2.9-9.9-6.5s4.4-6.5,9.9-6.5s9.9,2.9,9.9,6.5l0,0
		C1134.8,623.8,1130.3,626.7,1124.8,626.7z M1124.8,616.7c-2.9,0-5.4,1.6-5.4,3.5s2.4,3.5,5.4,3.5c2.9,0,5.4-1.6,5.4-3.5l0,0
		C1130.3,618.3,1127.9,616.7,1124.8,616.7L1124.8,616.7L1124.8,616.7z"/>
	<path class="st0" d="M1333.3,194c-1.2,0-2.3-0.7-2.3-1.5s1.1-1.5,2.3-1.5c15.8,0,28.6-8.4,28.6-18.7c0-0.8,1.1-1.5,2.3-1.5
		c1.2,0,2.3,0.7,2.3,1.5C1366.5,184.3,1351.7,194,1333.3,194z"/>
	<path class="st0" d="M958.6,71.7c-1.2,0-2.3-0.7-2.3-1.5l0,0c0-12,14.8-21.7,33.3-21.8c1.2,0,2.3,0.7,2.3,1.5s-1.1,1.5-2.3,1.5
		c-15.9,0-28.6,8.4-28.8,18.8C960.9,71,959.8,71.7,958.6,71.7L958.6,71.7z"/>
	<path class="st0" d="M1267.2,49.9L1267.2,49.9c-1.2,0-2.3-0.7-2.3-1.5c0-11.2,13.9-20.2,31.1-20.2h143.8c1.2,0,2.3,0.7,2.3,1.5
		s-1.1,1.5-2.3,1.5H1296c-14.5,0-26.5,7.7-26.5,17.2l0,0C1269.4,49.2,1268.5,49.8,1267.2,49.9z"/>
	<path class="st0" d="M1437.9,458.8h-31.4c-17.1,0-31.1-9.1-31.1-20.3v-82.2c0-0.8,1.1-1.5,2.3-1.5s2.3,0.7,2.3,1.5v82.2
		c0,9.5,11.8,17.3,26.5,17.3h31.4c1.2,0,2.3,0.7,2.3,1.5C1440.2,458.2,1439.3,458.8,1437.9,458.8z"/>
	<path class="st0" d="M1235.6,172.9c-1.2,0-2.3-0.7-2.3-1.5c0-9.5-11.8-17.2-26.5-17.2l0,0l-94.5,0.1l0,0
		c-17.1,0-30.9-9.1-31.1-20.2l-0.5-128.5c0-0.8,1.1-1.5,2.3-1.5l0,0c1.2,0,2.3,0.7,2.3,1.5l0.3,128.5c0,9.5,11.9,17.2,26.5,17.2l0,0
		l94.5-0.1l0,0c17.1,0,30.9,9.1,31.1,20.2C1237.7,172.2,1236.6,172.9,1235.6,172.9L1235.6,172.9L1235.6,172.9L1235.6,172.9z"/>
	<path class="st0" d="M1378,364.9c-1.2,0-2.3-0.7-2.3-1.5v-91.1c0-9.5-11.8-17.3-26.5-17.3h-85c-17.1,0-31.1-9.1-31.1-20.3v-7.3
		l0.3-97.7c0-11.2,13.9-20.2,31.1-20.2l0,0l184.3,0.1c1.2,0,2.3,0.7,2.3,1.5s-1.1,1.5-2.3,1.5l0,0l-184.3-0.1l0,0
		c-14.5,0-26.5,7.7-26.5,17.2l-0.3,104.9c0,9.5,11.8,17.3,26.5,17.3h85c17.1,0,31.1,9.1,31.1,20.3v91.1
		C1380.1,364.2,1379.2,364.9,1378,364.9z"/>
</g>
<g>
	<path class="st0" d="M162.3,499.5c-1.3,0-2.4-0.7-2.4-1.5s1.1-1.5,2.4-1.5c16.4,0,29.8-8.4,29.8-18.7c0-0.8,1.1-1.5,2.4-1.5
		c1.3,0,2.4,0.7,2.4,1.5C196.8,489.7,181.2,499.5,162.3,499.5z"/>
	<path class="st0" d="M70.3,275.4H37.7c-1.3,0-2.4-0.7-2.4-1.5s1.1-1.5,2.4-1.5h32.6c15.1,0,27.5-7.7,27.5-17.3v-64.2
		c0-11.2,14.5-20.3,32.3-20.3h40.7c15.1,0,27.5-7.7,27.5-17.3V3.2c0-0.8,1.1-1.5,2.4-1.5c1.3,0,2.4,0.7,2.4,1.5l0,0v150.2
		c0,11.2-14.5,20.3-32.3,20.3h-40.7c-15.1,0-27.5,7.7-27.5,17.3v64.2C102.6,266.4,88.2,275.4,70.3,275.4z"/>
	<path class="st0" d="M355.8,92.3h-89.6c-1.3,0-2.4-0.7-2.4-1.5s1.1-1.5,2.4-1.5h89.6c1.3,0,2.4,0.7,2.4,1.5S357.2,92.3,355.8,92.3z
		"/>
	<path class="st0" d="M157.1,112.6H86.9c-1.3,0-2.4-0.7-2.4-1.5s1.1-1.5,2.4-1.5h70.2c1.3,0,2.4,0.7,2.4,1.5
		S158.5,112.6,157.1,112.6z"/>
	<path class="st0" d="M245.8,112.6h-20.4c-1.3,0-2.4-0.7-2.4-1.5s1.1-1.5,2.4-1.5h20.4c1.3,0,2.4,0.7,2.4,1.5
		S247.3,112.6,245.8,112.6z"/>
	<path class="st0" d="M81.6,51.4H12.9c-1.3,0-2.4-0.7-2.4-1.5l0,0c0-0.8,1.1-1.5,2.4-1.5h68.7c1.3,0,2.4,0.7,2.4,1.5
		S82.9,51.4,81.6,51.4z"/>
	<path class="st0" d="M142.6,51.4h-35.3c-1.3,0-2.4-0.7-2.4-1.5s1.1-1.5,2.4-1.5l0,0h35.3c1.3,0,2.4,0.7,2.4,1.5
		S143.8,51.4,142.6,51.4z"/>
	<path class="st0" d="M287.5,51.4h-44.4c-1.3,0-2.4-0.7-2.4-1.5s1.1-1.5,2.4-1.5h44.4C287.5,48.6,276.6,50,287.5,51.4z"/>
	<path class="st0" d="M347.7,51.4h-31c-1.3,0-2.4-0.7-2.4-1.5s1.1-1.5,2.4-1.5h31C347.7,48.6,336.7,50,347.7,51.4z"/>
	<path class="st0" d="M493.8,51.4H471c-1.3,0-2.4-0.7-2.4-1.5s1.1-1.5,2.4-1.5h22.8c1.3,0,2.4,0.7,2.4,1.5S495.2,51.4,493.8,51.4z"
		/>
	<path class="st0" d="M574.6,51.4H521c-1.3,0-2.4-0.7-2.4-1.5s1.1-1.5,2.4-1.5h53.6c1.3,0,2.4,0.7,2.4,1.5S575.9,51.4,574.6,51.4z"
		/>
	<path class="st0" d="M122.7,71.7H98c-1.3,0-2.4-0.7-2.4-1.5s1.1-1.5,2.4-1.5h24.7c1.3,0,2.4,0.7,2.4,1.5S124,71.7,122.7,71.7z"/>
	<path class="st0" d="M175.7,153.4h-29.4c-1.3,0-2.4-0.7-2.4-1.5s1.1-1.5,2.4-1.5h29.4c1.3,0,2.4,0.7,2.4,1.5
		S177.1,153.4,175.7,153.4z"/>
	<path class="st0" d="M140.7,173.7H56.8c-1.3,0-2.4-0.7-2.4-1.5s1.1-1.5,2.4-1.5h83.9c1.3,0,2.4,0.7,2.4,1.5
		S141.9,173.7,140.7,173.7z"/>
	<path class="st0" d="M169.1,132.9H145c-1.3,0-2.4-0.7-2.4-1.5s1.1-1.5,2.4-1.5h24.2c1.3,0,2.4,0.7,2.4,1.5S170.4,132.9,169.1,132.9
		z"/>
	<path class="st0" d="M72.6,234.8H11.3c-1.3,0-2.4-0.7-2.4-1.5s1.1-1.5,2.4-1.5h61.4c1.3,0,2.4,0.7,2.4,1.5
		C74.9,234.2,74,234.9,72.6,234.8L72.6,234.8z"/>
	<path class="st0" d="M161.8,234.8h-35c-1.3,0-2.4-0.7-2.4-1.5s1.1-1.5,2.4-1.5h35c1.3,0,2.4,0.7,2.4,1.5S163.1,234.8,161.8,234.8z"
		/>
	<path class="st0" d="M310.4,234.8h-26.7c-1.3,0-2.4-0.7-2.4-1.5s1.1-1.5,2.4-1.5h26.7c1.3,0,2.4,0.7,2.4,1.5
		S311.9,234.8,310.4,234.8z"/>
	<path class="st0" d="M398.9,234.8h-61.7c-1.3,0-2.4-0.7-2.4-1.5s1.1-1.5,2.4-1.5h61.7c1.3,0,2.4,0.6,2.4,1.5
		C401.3,234.1,400.4,234.8,398.9,234.8L398.9,234.8z"/>
	<path class="st0" d="M263.7,255.2h-37.1c-1.3,0-2.4-0.7-2.4-1.5s1.1-1.5,2.4-1.5h37.1c1.3,0,2.4,0.7,2.4,1.5
		S264.9,255.2,263.7,255.2z"/>
	<path class="st0" d="M203.5,194h-25c-1.3,0-2.4-0.7-2.4-1.5s1.1-1.5,2.4-1.5h25c1.3,0,2.4,0.7,2.4,1.5S204.8,194,203.5,194z"/>
	<path class="st0" d="M304.9,194h-72.1c-1.3,0-2.4-0.7-2.4-1.5s1.1-1.5,2.4-1.5h72.1c1.3,0,2.4,0.7,2.4,1.5S306.3,194,304.9,194z"/>
	<path class="st0" d="M365.7,194h-37.4c-1.3,0-2.4-0.7-2.4-1.5s1.1-1.5,2.4-1.5h37.4c1.3,0,2.4,0.7,2.4,1.5S366.9,194,365.7,194z"/>
	<path class="st0" d="M219.9,214.3h-93.2c-1.3,0-2.4-0.7-2.4-1.5s1.1-1.5,2.4-1.5h93.1c1.3,0,2.4,0.7,2.4,1.5
		S221.2,214.3,219.9,214.3z"/>
	<path class="st0" d="M334.6,214.3h-68.3c-1.3,0-2.4-0.7-2.4-1.5s1.1-1.5,2.4-1.5h68.3c1.3,0,2.4,0.7,2.4,1.5
		S335.9,214.3,334.6,214.3z"/>
	<path class="st0" d="M448.4,214.3h-89.7c-1.3,0-2.4-0.7-2.4-1.5s1.1-1.5,2.4-1.5h89.7c1.3,0,2.4,0.7,2.4,1.5
		S449.7,214.3,448.4,214.3L448.4,214.3z"/>
	<path class="st0" d="M57.1,214.3H23.2c-1.3,0-2.4-0.7-2.4-1.5s1.1-1.5,2.4-1.5h33.9c1.3,0,2.4,0.7,2.4,1.5S58.4,214.3,57.1,214.3z"
		/>
	<path class="st0" d="M118.5,296H61.1c-1.3,0-2.4-0.7-2.4-1.5s1.1-1.5,2.4-1.5l0,0h57.6c1.3,0,2.4,0.7,2.4,1.5S120,296,118.5,296z"
		/>
	<path class="st0" d="M192.7,296h-49c-1.3,0-2.4-0.7-2.4-1.5s1.1-1.5,2.4-1.5h49c1.3,0,2.4,0.7,2.4,1.5S194,296,192.7,296z"/>
	<path class="st0" d="M348,296h-55.9c-1.3,0-2.4-0.7-2.4-1.5s1.1-1.5,2.4-1.5H348c1.3,0,2.4,0.7,2.4,1.5S349.4,296,348,296z"/>
	<path class="st0" d="M150.7,275.4h-38c-1.3,0-2.4-0.7-2.4-1.5s1.1-1.5,2.4-1.5h37.9c1.3,0,2.4,0.7,2.4,1.5S152,275.4,150.7,275.4z"
		/>
	<path class="st0" d="M186.7,275.4h-17.5c-1.3,0-2.4-0.7-2.4-1.5s1.1-1.5,2.4-1.5h17.5c1.3,0,2.4,0.7,2.4,1.5
		S187.9,275.4,186.7,275.4z"/>
	<path class="st0" d="M207.7,377.4H165c-1.3,0-2.4-0.7-2.4-1.5s1.1-1.5,2.4-1.5h42.6c1.3,0,2.4,0.7,2.4,1.5
		C210,376.7,208.9,377.4,207.7,377.4z"/>
	<path class="st0" d="M257.5,397.7h-14c-1.3,0-2.4-0.7-2.4-1.5s1.1-1.5,2.4-1.5h14.2c1.3,0,2.4,0.7,2.4,1.5S258.7,397.7,257.5,397.7
		z"/>
	<path class="st0" d="M85.3,336.6H12.9c-1.3,0-2.4-0.7-2.4-1.5s1.1-1.5,2.4-1.5h72.6c1.3,0,2.4,0.7,2.4,1.5
		C87.7,335.9,86.7,336.6,85.3,336.6z"/>
	<path class="st0" d="M292.9,336.6h-27.4c-1.3,0-2.4-0.7-2.4-1.5s1.1-1.5,2.4-1.5h27.4c1.3,0,2.4,0.7,2.4,1.5
		S294.2,336.6,292.9,336.6z"/>
	<path class="st0" d="M124.9,356.9H92.5c-1.3,0-2.4-0.7-2.4-1.5s1.1-1.5,2.4-1.5H125c1.3,0,2.4,0.7,2.4,1.5S126.2,356.9,124.9,356.9
		z"/>
	<path class="st0" d="M207.7,356.9h-60.1c-1.3,0-2.4-0.7-2.4-1.5s1.1-1.5,2.4-1.5h60.3c1.3,0,2.4,0.7,2.4,1.5
		S208.9,356.9,207.7,356.9L207.7,356.9z"/>
	<path class="st0" d="M289.1,356.9h-38.7c-1.3,0-2.4-0.7-2.4-1.5s1.1-1.5,2.4-1.5h38.7c1.3,0,2.4,0.7,2.4,1.5
		S290.6,356.9,289.1,356.9z"/>
	<path class="st0" d="M318.7,356.9h-14.3c-1.3,0-2.4-0.7-2.4-1.5s1.1-1.5,2.4-1.5h14.3c1.3,0,2.4,0.7,2.4,1.5S320,356.9,318.7,356.9
		z"/>
	<path class="st0" d="M190.6,438.5h-64c-1.3,0-2.4-0.7-2.4-1.5s1.1-1.5,2.4-1.5h64c1.3,0,2.4,0.7,2.4,1.5
		C193,437.9,191.9,438.5,190.6,438.5z"/>
	<path class="st0" d="M99.3,438.4H38.8c-1.3,0-2.4-0.7-2.4-1.5s1.1-1.5,2.4-1.5h60.5c1.3,0,2.4,0.7,2.4,1.5S100.6,438.4,99.3,438.4z
		"/>
	<path class="st0" d="M111.9,458.8H93.4c-1.3,0-2.4-0.7-2.4-1.5s1.1-1.5,2.4-1.5h18.5c1.3,0,2.4,0.7,2.4,1.5
		S113.3,458.8,111.9,458.8z"/>
	<path class="st0" d="M328.3,458.8h-36.8c-1.3,0-2.4-0.7-2.4-1.5s1.1-1.5,2.4-1.5h36.8c1.3,0,2.4,0.7,2.4,1.5
		C330.7,458.2,329.5,458.8,328.3,458.8z"/>
	<path class="st0" d="M128.9,418H103c-1.3,0-2.4-0.7-2.4-1.5s1.1-1.5,2.4-1.5h25.9c1.3,0,2.4,0.7,2.4,1.5S130.2,418,128.9,418z"/>
	<path class="st0" d="M166.4,418h-14c-1.3,0-2.4-0.7-2.4-1.5s1.1-1.5,2.4-1.5h14c1.3,0,2.4,0.7,2.4,1.5S167.9,418,166.4,418z"/>
	<path class="st0" d="M314.4,653.4c-1.3,0-2.4-0.7-2.4-1.5v-13c0-9.5-12.4-17.2-27.5-17.2l0,0L155,621.8l0,0
		c-17.8,0.1-32.3-9-32.5-20.2l0,0l-0.3-57v-5.7c0-10.4-13.4-18.8-29.9-18.9H43.4c-1.3,0-2.4-0.7-2.4-1.5s1.1-1.5,2.4-1.5h49
		c19.3,0,34.7,9.8,34.7,21.9v5.7l0.3,57c0,9.5,12.3,17.2,27.5,17.2l0,0l129.5-0.1l0,0c17.8,0,32.3,9.1,32.3,20.2v13
		C316.8,652.8,315.7,653.5,314.4,653.4L314.4,653.4L314.4,653.4z"/>
	<path class="st0" d="M179.6,520h-45.8c-1.3,0-2.4-0.7-2.4-1.5s1.1-1.5,2.4-1.5h45.7c1.3,0,2.4,0.7,2.4,1.5S180.9,520,179.6,520z"/>
	<path class="st0" d="M304.2,520H204c-1.3,0-2.4-0.7-2.4-1.5s1.1-1.5,2.4-1.5l0,0h100.2c1.3,0,2.4,0.7,2.4,1.5S305.5,520,304.2,520z
		"/>
	<path class="st0" d="M103,540.3H81.6c-1.3,0-2.4-0.7-2.4-1.5s1.1-1.5,2.4-1.5h21.5c1.3,0,2.4,0.7,2.4,1.5S104.4,540.3,103,540.3z"
		/>
	<path class="st0" d="M239.6,479.2h-64c-1.3,0-2.4-0.7-2.4-1.5s1.1-1.5,2.4-1.5h64c1.3,0,2.4,0.7,2.4,1.5S240.9,479.2,239.6,479.2z"
		/>
	<path class="st0" d="M65.2,499.5H12.9c-1.3,0-2.4-0.7-2.4-1.5s1.1-1.5,2.4-1.5h52.4c1.3,0,2.4,0.7,2.4,1.5S66.5,499.5,65.2,499.5z"
		/>
	<path class="st0" d="M211.8,499.5h-55.4c-1.3,0-2.4-0.7-2.4-1.5s1.1-1.5,2.4-1.5h55.2c1.3,0,2.4,0.7,2.4,1.5
		S213.1,499.5,211.8,499.5z"/>
	<path class="st0" d="M244.9,499.5h-10.7c-1.3,0-2.4-0.7-2.4-1.5s1.1-1.5,2.4-1.5h10.7c1.3,0,2.4,0.7,2.4,1.5
		S246.2,499.5,244.9,499.5z"/>
	<path class="st0" d="M252.8,581.1H201c-1.3,0-2.4-0.7-2.4-1.5s1.1-1.5,2.4-1.5l0,0h51.9c1.3,0,2.4,0.7,2.4,1.5
		S254.1,581.1,252.8,581.1z"/>
	<path class="st0" d="M294.2,581.1h-21.5c-1.3,0-2.4-0.7-2.4-1.5s1.1-1.5,2.4-1.5h21.5c1.3,0,2.4,0.7,2.4,1.5
		S295.7,581.1,294.2,581.1z"/>
	<path class="st0" d="M225.8,601.4h-70.2c-1.3,0-2.4-0.7-2.4-1.5s1.1-1.5,2.4-1.5h70.2c1.3,0,2.4,0.7,2.4,1.5
		S227.1,601.4,225.8,601.4z"/>
	<path class="st0" d="M55.1,560.6H2.4c-1.3,0-2.4-0.7-2.4-1.5s1.1-1.5,2.4-1.5h52.7c1.3,0,2.4,0.7,2.4,1.5S56.3,560.6,55.1,560.6z"
		/>
	<path class="st0" d="M208.6,560.6h-31.2c-1.3,0-2.4-0.7-2.4-1.5s1.1-1.5,2.4-1.5h31.2c1.3,0,2.4,0.7,2.4,1.5
		S209.9,560.6,208.6,560.6z"/>
	<path class="st0" d="M265.6,560.6h-35.2c-1.3,0-2.4-0.7-2.4-1.5s1.1-1.5,2.4-1.5h35.2c1.3,0,2.4,0.7,2.4,1.5
		S266.8,560.6,265.6,560.6z"/>
	<path class="st0" d="M587,601.4h-63.5c-1.3,0-2.4-0.7-2.4-1.5s1.1-1.5,2.4-1.5H587c1.3,0,2.4,0.7,2.4,1.5
		C589.4,600.8,588.3,601.4,587,601.4z"/>
	<path class="st0" d="M634.6,31.1H509.4c-1.3,0-2.4-0.7-2.4-1.5s1.1-1.5,2.4-1.5h125.2c1.3,0,2.4,0.7,2.4,1.5S635.9,31.1,634.6,31.1
		z"/>
	<path class="st0" d="M723.2,31.1h-66.5c-1.3,0-2.4-0.7-2.4-1.5s1.1-1.5,2.4-1.5h66.5c1.3,0,2.4,0.7,2.4,1.5S724.5,31.1,723.2,31.1
		L723.2,31.1z"/>
	<path class="st0" d="M512.7,621.7h-26.6c-1.3,0-2.4-0.7-2.4-1.5s1.1-1.5,2.4-1.5h26.6c1.3,0,2.4,0.7,2.4,1.5
		C515.1,621.1,514.1,621.7,512.7,621.7z"/>
	<path class="st0" d="M102.6,621.7H71.1c-1.3,0-2.4-0.7-2.4-1.5s1.1-1.5,2.4-1.5h31.5c1.3,0,2.4,0.7,2.4,1.5
		S103.9,621.7,102.6,621.7z"/>
	<path class="st0" d="M560.3,621.7H532c-1.3,0-2.4-0.7-2.4-1.5s1.1-1.5,2.4-1.5h28.3c1.3,0,2.4,0.7,2.4,1.5S561.7,621.7,560.3,621.7
		z"/>
	<path class="st0" d="M561.5,642H456.7c-1.3,0-2.4-0.7-2.4-1.5s1.1-1.5,2.4-1.5h104.9c1.3,0,2.4,0.7,2.4,1.5S562.8,642,561.5,642z"
		/>
	<path class="st0" d="M433.1,642h-96.3c-1.3,0-2.4-0.7-2.4-1.5s1.1-1.5,2.4-1.5h96.3c1.3,0,2.4,0.7,2.4,1.5S434.4,642,433.1,642z"/>
	<path class="st0" d="M292.3,642H267c-1.3,0-2.4-0.7-2.4-1.5s1.1-1.5,2.4-1.5h25.3c1.3,0,2.4,0.6,2.4,1.5
		C294.7,641.3,293.7,642,292.3,642L292.3,642z"/>
	<path class="st0" d="M155.6,642H41.1c-1.3,0-2.4-0.7-2.4-1.5s1.1-1.5,2.4-1.5h114.6c1.3,0,2.4,0.7,2.4,1.5S157.1,642,155.6,642z"/>
	<path class="st0" d="M690,642H585.1c-1.3,0-2.4-0.7-2.4-1.5s1.1-1.5,2.4-1.5H690c1.3,0,2.4,0.7,2.4,1.5
		C692.3,641.4,691.2,642,690,642z"/>
	<path class="st0" d="M233.3,71.8c-19.3,0-34.8-9.8-34.8-21.9c0-0.8,1.1-1.5,2.4-1.5c1.3,0,2.4,0.7,2.4,1.5
		c0,10.4,13.5,18.9,30.1,18.9h7h139.2c15.1,0,27.5-7.7,27.5-17.3v-50c0-0.8,1.1-1.5,2.4-1.5s2.4,0.7,2.4,1.5v50
		c0,11.2-14.5,20.3-32.3,20.3H240.3H233.3z"/>
	<path class="st0" d="M303.1,586.1c-5.7,0-10.3-2.9-10.3-6.5s4.6-6.5,10.3-6.5s10.3,2.9,10.3,6.5l0,0
		C313.5,583.2,308.9,586.1,303.1,586.1z M303.1,576.1c-3,0-5.6,1.6-5.6,3.5s2.5,3.5,5.6,3.5s5.6-1.6,5.6-3.5l0,0
		C308.7,577.7,306.3,576.1,303.1,576.1L303.1,576.1L303.1,576.1z"/>
	<path class="st0" d="M89.7,402.7c-5.7,0-10.3-2.9-10.3-6.5s4.6-6.5,10.3-6.5s10.3,2.9,10.3,6.5l0,0
		C100.1,399.8,95.5,402.7,89.7,402.7z M89.7,392.7c-3,0-5.6,1.6-5.6,3.5s2.5,3.5,5.6,3.5s5.6-1.6,5.6-3.5l0,0
		C95.3,394.3,92.9,392.7,89.7,392.7L89.7,392.7L89.7,392.7z"/>
	<path class="st0" d="M227.9,219.3c-5.7,0-10.3-2.9-10.3-6.5s4.6-6.5,10.3-6.5s10.3,2.9,10.3,6.5l0,0
		C238.2,216.4,233.6,219.3,227.9,219.3z M227.9,209.3c-3,0-5.6,1.6-5.6,3.5s2.5,3.5,5.6,3.5c3,0,5.6-1.6,5.6-3.5l0,0
		C233.4,210.9,230.9,209.3,227.9,209.3L227.9,209.3L227.9,209.3z"/>
	<path class="st0" d="M166.3,295.9c-0.6,0-1.3-0.2-1.8-0.4L132,275.1c-1-0.6-0.8-1.6,0.2-2.1s2.4-0.5,3.2,0l32.5,20.4
		c1,0.6,0.8,1.6-0.2,2.1C167.4,295.7,166.8,295.9,166.3,295.9z"/>
	<path class="st0" d="M543.4,51.2c-1.3,0-2.4-0.7-2.4-1.5c0-0.4,0.3-0.8,0.6-1.1l32-20.1c1-0.6,2.5-0.5,3.3,0.1s0.8,1.5,0,2
		l-32,20.1C544.7,51.1,544,51.2,543.4,51.2z"/>
	<path class="st0" d="M194,601.3c-1.3,0-2.4-0.7-2.4-1.5c0-0.4,0.3-0.8,0.6-1.1l32.3-20.2c1-0.6,2.4-0.6,3.3-0.1
		c1,0.6,1,1.5,0.2,2.1c0,0,0,0-0.2,0.1l-32.1,20.3C195.2,601.2,194.6,601.4,194,601.3z"/>
	<path class="st0" d="M196.4,397.7H97.7c-1.3,0-2.4-0.7-2.4-1.5s1.1-1.5,2.4-1.5h98.7c15,0.1,27.2-7.4,27.4-16.8c0-0.1,0-0.2,0-0.3
		l0.3-44.1c0-11.2,14.5-20.2,32.3-20.2h26.9c16.5,0,29.9-8.4,30.1-18.8c0-0.8,1.1-1.5,2.4-1.5s2.4,0.7,2.4,1.5
		c0,12-15.6,21.8-34.8,21.8h-26.9c-15.1,0-27.5,7.7-27.5,17.2l-0.3,44.1C228.5,388.7,214.2,397.7,196.4,397.7z"/>
	<path class="st0" d="M162.5,499.5c-1.3,0-2.4-0.7-2.4-1.5s1.1-1.5,2.4-1.5c16.4,0,29.6-8.4,29.6-18.7c0-0.8,1.1-1.5,2.4-1.5
		c1.3,0,2.4,0.7,2.4,1.5C196.8,489.7,181.6,499.4,162.5,499.5z"/>
	<path class="st0" d="M501.4,36.1c-5.7,0-10.3-2.9-10.3-6.5c0-3.6,4.6-6.5,10.3-6.5s10.3,2.9,10.3,6.5
		C511.7,33.2,507.1,36.1,501.4,36.1z M501.4,26.1c-3,0-5.6,1.6-5.6,3.5s2.5,3.5,5.6,3.5c3,0,5.6-1.6,5.6-3.5S504.4,26.1,501.4,26.1
		L501.4,26.1z"/>
	<path class="st0" d="M301.5,214.2c-1.3,0-2.4-0.7-2.4-1.5c0-10.3-13.4-18.7-29.8-18.7c-1.3,0-2.4-0.7-2.4-1.5s1.1-1.5,2.4-1.5
		c19.1,0,34.5,9.7,34.5,21.7C303.9,213.6,302.8,214.2,301.5,214.2z"/>
</g>
<g>
	<text transform="matrix(1 0 0 1 248.0072 270.1785)" class="st3 st1 st2">MADE BY</text>
	<text transform="matrix(1 0 0 1 241.9072 601.3785)" class="st3 st1 st2"> WEI X.M.</text>
</g>
</svg>
